<svg width="21" height="21" viewBox="0 0 21 21" fill="none" xmlns="http://www.w3.org/2000/svg">
<path d="M9.03596 14.0951L5.50012 10.5584L6.67846 9.38008L9.03596 11.7368L13.7493 7.02258L14.9285 8.20175L9.03596 14.0951Z" fill="black"/>
<path fill-rule="evenodd" clip-rule="evenodd" d="M1.33337 10.5C1.33337 5.43754 5.43754 1.33337 10.5 1.33337C15.5625 1.33337 19.6667 5.43754 19.6667 10.5C19.6667 15.5625 15.5625 19.6667 10.5 19.6667C5.43754 19.6667 1.33337 15.5625 1.33337 10.5ZM10.5 18C9.51513 18 8.53986 17.806 7.62992 17.4291C6.71997 17.0522 5.89318 16.4998 5.19674 15.8033C4.5003 15.1069 3.94785 14.2801 3.57094 13.3702C3.19403 12.4602 3.00004 11.485 3.00004 10.5C3.00004 9.51513 3.19403 8.53986 3.57094 7.62992C3.94785 6.71997 4.5003 5.89318 5.19674 5.19674C5.89318 4.5003 6.71997 3.94785 7.62992 3.57094C8.53986 3.19403 9.51513 3.00004 10.5 3.00004C12.4892 3.00004 14.3968 3.79022 15.8033 5.19674C17.2099 6.60326 18 8.51092 18 10.5C18 12.4892 17.2099 14.3968 15.8033 15.8033C14.3968 17.2099 12.4892 18 10.5 18Z" fill="black"/>
</svg>
