<svg width="64" height="65" viewBox="0 0 64 65" fill="none" xmlns="http://www.w3.org/2000/svg">
<path d="M34.6669 37.8332H24.0002C23.293 37.8332 22.6147 38.1142 22.1146 38.6143C21.6145 39.1144 21.3335 39.7926 21.3335 40.4999C21.3335 41.2071 21.6145 41.8854 22.1146 42.3855C22.6147 42.8856 23.293 43.1666 24.0002 43.1666H34.6669C35.3741 43.1666 36.0524 42.8856 36.5525 42.3855C37.0526 41.8854 37.3335 41.2071 37.3335 40.4999C37.3335 39.7926 37.0526 39.1144 36.5525 38.6143C36.0524 38.1142 35.3741 37.8332 34.6669 37.8332ZM45.3335 11.1666H42.1869C41.6367 9.61043 40.6187 8.26256 39.2724 7.30773C37.9261 6.35291 36.3174 5.83787 34.6669 5.83323H29.3335C27.683 5.83787 26.0743 6.35291 24.728 7.30773C23.3817 8.26256 22.3637 9.61043 21.8135 11.1666H18.6669C16.5451 11.1666 14.5103 12.0094 13.01 13.5097C11.5097 15.01 10.6669 17.0448 10.6669 19.1666V51.1666C10.6669 53.2883 11.5097 55.3231 13.01 56.8234C14.5103 58.3237 16.5451 59.1666 18.6669 59.1666H45.3335C47.4553 59.1666 49.4901 58.3237 50.9904 56.8234C52.4907 55.3231 53.3335 53.2883 53.3335 51.1666V19.1666C53.3335 17.0448 52.4907 15.01 50.9904 13.5097C49.4901 12.0094 47.4553 11.1666 45.3335 11.1666ZM26.6669 13.8332C26.6669 13.126 26.9478 12.4477 27.4479 11.9476C27.948 11.4475 28.6263 11.1666 29.3335 11.1666H34.6669C35.3741 11.1666 36.0524 11.4475 36.5525 11.9476C37.0526 12.4477 37.3335 13.126 37.3335 13.8332V16.4999H26.6669V13.8332ZM48.0002 51.1666C48.0002 51.8738 47.7193 52.5521 47.2192 53.0522C46.7191 53.5523 46.0408 53.8332 45.3335 53.8332H18.6669C17.9596 53.8332 17.2814 53.5523 16.7813 53.0522C16.2812 52.5521 16.0002 51.8738 16.0002 51.1666V19.1666C16.0002 18.4593 16.2812 17.781 16.7813 17.2809C17.2814 16.7808 17.9596 16.4999 18.6669 16.4999H21.3335V19.1666C21.3335 19.8738 21.6145 20.5521 22.1146 21.0522C22.6147 21.5523 23.293 21.8332 24.0002 21.8332H40.0002C40.7075 21.8332 41.3857 21.5523 41.8858 21.0522C42.3859 20.5521 42.6669 19.8738 42.6669 19.1666V16.4999H45.3335C46.0408 16.4999 46.7191 16.7808 47.2192 17.2809C47.7193 17.781 48.0002 18.4593 48.0002 19.1666V51.1666ZM40.0002 27.1666H24.0002C23.293 27.1666 22.6147 27.4475 22.1146 27.9476C21.6145 28.4477 21.3335 29.126 21.3335 29.8332C21.3335 30.5405 21.6145 31.2187 22.1146 31.7188C22.6147 32.2189 23.293 32.4999 24.0002 32.4999H40.0002C40.7075 32.4999 41.3857 32.2189 41.8858 31.7188C42.3859 31.2187 42.6669 30.5405 42.6669 29.8332C42.6669 29.126 42.3859 28.4477 41.8858 27.9476C41.3857 27.4475 40.7075 27.1666 40.0002 27.1666Z" fill="#937028"/>
</svg>
