<svg width="55" height="54" viewBox="0 0 55 54" fill="none" xmlns="http://www.w3.org/2000/svg">
<rect x="0.5" width="54" height="54" rx="27" fill="#937028"/>
<path d="M25.5281 16.3769C24.6528 15.6996 23.5796 15.3297 22.4751 15.3297C19.7243 15.3297 17.4997 17.5543 17.4997 20.3051V20.6281C17.4997 21.4512 17.6925 22.2588 18.0571 22.9986L19.2815 25.4524C19.5159 25.9161 19.6774 26.411 19.7712 26.9216L21.6832 37.6434C21.7874 38.2269 22.2875 38.6541 22.8763 38.675C23.465 38.6958 23.9912 38.2895 24.1266 37.7164L25.6323 31.3968C25.8459 30.5268 26.6169 29.9172 27.5026 29.9172C28.3883 29.9172 29.1593 30.5268 29.3677 31.3916L30.8734 37.7112C31.0088 38.2895 31.535 38.6906 32.1237 38.6698C32.7124 38.6489 33.2126 38.2217 33.3168 37.6382L35.2288 26.9164C35.3226 26.4058 35.4841 25.9109 35.7185 25.4472L36.9428 22.9934C37.3127 22.2588 37.5003 21.446 37.5003 20.6229V20.5135C37.5003 17.6481 35.1767 15.3245 32.3113 15.3245C31.0557 15.3245 29.8418 15.7829 28.8936 16.6061L28.7269 16.752L29.7428 17.5439C30.1075 17.8252 30.17 18.3514 29.8887 18.7161C29.6074 19.0808 29.0812 19.1433 28.7165 18.8619L27.4453 17.8721L25.5176 16.3716L25.5281 16.3769Z" fill="white"/>
</svg>
