<svg width="24" height="25" viewBox="0 0 24 25" fill="none" xmlns="http://www.w3.org/2000/svg">
<path d="M12.001 9.78271C11.2054 9.78271 10.4423 10.0988 9.87968 10.6614C9.31707 11.224 9.001 11.9871 9.001 12.7827C9.001 13.5784 9.31707 14.3414 9.87968 14.904C10.4423 15.4666 11.2054 15.7827 12.001 15.7827C12.7966 15.7827 13.5597 15.4666 14.1223 14.904C14.6849 14.3414 15.001 13.5784 15.001 12.7827C15.001 11.9871 14.6849 11.224 14.1223 10.6614C13.5597 10.0988 12.7966 9.78271 12.001 9.78271ZM12.001 7.78271C13.3271 7.78271 14.5989 8.3095 15.5365 9.24718C16.4742 10.1849 17.001 11.4566 17.001 12.7827C17.001 14.1088 16.4742 15.3806 15.5365 16.3182C14.5989 17.2559 13.3271 17.7827 12.001 17.7827C10.6749 17.7827 9.40315 17.2559 8.46547 16.3182C7.52778 15.3806 7.001 14.1088 7.001 12.7827C7.001 11.4566 7.52778 10.1849 8.46547 9.24718C9.40315 8.3095 10.6749 7.78271 12.001 7.78271ZM18.501 7.53271C18.501 7.86424 18.3693 8.18218 18.1349 8.4166C17.9005 8.65102 17.5825 8.78271 17.251 8.78271C16.9195 8.78271 16.6015 8.65102 16.3671 8.4166C16.1327 8.18218 16.001 7.86424 16.001 7.53271C16.001 7.20119 16.1327 6.88325 16.3671 6.64883C16.6015 6.41441 16.9195 6.28271 17.251 6.28271C17.5825 6.28271 17.9005 6.41441 18.1349 6.64883C18.3693 6.88325 18.501 7.20119 18.501 7.53271ZM12.001 4.78271C9.527 4.78271 9.123 4.78971 7.972 4.84071C7.188 4.87771 6.662 4.98271 6.174 5.17271C5.76583 5.32309 5.39672 5.56335 5.094 5.87571C4.78127 6.17833 4.54066 6.54745 4.39 6.95571C4.2 7.44571 4.095 7.97072 4.059 8.75372C4.007 9.85772 4 10.2437 4 12.7827C4 15.2577 4.007 15.6607 4.058 16.8117C4.095 17.5947 4.2 18.1217 4.389 18.6087C4.559 19.0437 4.759 19.3567 5.091 19.6887C5.428 20.0247 5.741 20.2257 6.171 20.3917C6.665 20.5827 7.191 20.6887 7.971 20.7247C9.075 20.7767 9.461 20.7827 12 20.7827C14.475 20.7827 14.878 20.7757 16.029 20.7247C16.811 20.6877 17.337 20.5827 17.826 20.3937C18.2342 20.2433 18.6033 20.0031 18.906 19.6907C19.243 19.3547 19.444 19.0417 19.61 18.6107C19.8 18.1187 19.906 17.5927 19.942 16.8107C19.994 15.7077 20 15.3207 20 12.7827C20 10.3087 19.993 9.90472 19.942 8.75372C19.905 7.97171 19.799 7.44371 19.61 6.95571C19.4596 6.54755 19.2194 6.17844 18.907 5.87571C18.6044 5.56299 18.2353 5.32238 17.827 5.17171C17.337 4.98171 16.811 4.87671 16.029 4.84071C14.926 4.78871 14.54 4.78271 12 4.78271M12 2.78271C14.717 2.78271 15.056 2.79271 16.123 2.84271C17.187 2.89271 17.913 3.05971 18.55 3.30771C19.21 3.56171 19.766 3.90571 20.322 4.46071C20.8307 4.96045 21.2242 5.56519 21.475 6.23271C21.722 6.86971 21.89 7.59571 21.94 8.66071C21.987 9.72671 22 10.0657 22 12.7827C22 15.4997 21.99 15.8387 21.94 16.9047C21.89 17.9707 21.722 18.6947 21.475 19.3327C21.2242 20.0002 20.8307 20.605 20.322 21.1047C19.8223 21.6134 19.2175 22.0069 18.55 22.2577C17.913 22.5047 17.187 22.6727 16.123 22.7227C15.056 22.7697 14.717 22.7827 12 22.7827C9.283 22.7827 8.944 22.7727 7.877 22.7227C6.813 22.6727 6.088 22.5047 5.45 22.2577C4.78247 22.0069 4.17773 21.6134 3.678 21.1047C3.16931 20.605 2.77582 20.0002 2.525 19.3327C2.277 18.6957 2.11 17.9697 2.06 16.9047C2.012 15.8387 2 15.4997 2 12.7827C2 10.0657 2.01 9.72671 2.06 8.66071C2.11 7.59471 2.277 6.87071 2.525 6.23271C2.77582 5.56519 3.16931 4.96045 3.678 4.46071C4.17773 3.95202 4.78247 3.55853 5.45 3.30771C6.087 3.05971 6.812 2.89271 7.877 2.84271C8.945 2.79571 9.284 2.78271 12.001 2.78271" fill="white"/>
</svg>
