<svg width="64" height="64" viewBox="0 0 64 64" fill="none" xmlns="http://www.w3.org/2000/svg">
<path d="M30.2935 4.91209C29.9992 4.75104 29.669 4.66663 29.3335 4.66663C28.998 4.66663 28.6678 4.75104 28.3735 4.91209L7.54683 16.2721C6.1815 17.0188 5.3335 18.4454 5.3335 20.0001V42.0001C5.3335 44.2986 6.24659 46.503 7.8719 48.1283C9.49722 49.7537 11.7016 50.6668 14.0002 50.6668H44.6668C46.9654 50.6668 49.1698 49.7537 50.7951 48.1283C52.4204 46.503 53.3335 44.2986 53.3335 42.0001V20.0001C53.3335 18.4454 52.4855 17.0161 51.1202 16.2721L30.2935 4.91209ZM29.3335 29.7228L10.2882 19.3334L29.3335 8.94409L48.3788 19.3334L29.3335 29.7228ZM30.2935 33.7548L49.3335 23.3681V42.0001C49.3335 43.2378 48.8418 44.4247 47.9667 45.2999C47.0915 46.1751 45.9045 46.6668 44.6668 46.6668H14.0002C12.7625 46.6668 11.5755 46.1751 10.7003 45.2999C9.82516 44.4247 9.3335 43.2378 9.3335 42.0001V23.3681L28.3735 33.7548C28.6678 33.9158 28.998 34.0002 29.3335 34.0002C29.669 34.0002 29.9992 33.9158 30.2935 33.7548ZM56.0002 20.0294C57.2266 20.8131 58.2358 21.893 58.9349 23.1695C59.634 24.446 60.0003 25.878 60.0002 27.3334V43.3334C60.0002 47.0465 58.5252 50.6074 55.8997 53.2329C53.2742 55.8584 49.7132 57.3334 46.0002 57.3334H22.0002C20.5443 57.334 19.1118 56.9679 17.8348 56.2688C16.5577 55.5697 15.4774 54.5602 14.6935 53.3334H46.0002C48.6523 53.3334 51.1959 52.2799 53.0712 50.4045C54.9466 48.5291 56.0002 45.9856 56.0002 43.3334V20.0294Z" fill="#937028"/>
</svg>
