<svg width="24" height="25" viewBox="0 0 24 25" fill="none" xmlns="http://www.w3.org/2000/svg">
<path d="M16.6002 6.60272C15.9167 5.82224 15.5401 4.82011 15.5402 3.78271H12.4502V16.1827C12.4268 16.8539 12.1437 17.4898 11.6605 17.9562C11.1773 18.4226 10.5318 18.6831 9.86016 18.6827C8.44016 18.6827 7.26016 17.5227 7.26016 16.0827C7.26016 14.3627 8.92016 13.0727 10.6302 13.6027V10.4427C7.18016 9.98271 4.16016 12.6627 4.16016 16.0827C4.16016 19.4127 6.92016 21.7827 9.85016 21.7827C12.9902 21.7827 15.5402 19.2327 15.5402 16.0827V9.79272C16.7932 10.6926 18.2975 11.1754 19.8402 11.1727V8.08272C19.8402 8.08272 17.9602 8.17272 16.6002 6.60272Z" fill="white"/>
</svg>
