<svg width="64" height="64" viewBox="0 0 64 64" fill="none" xmlns="http://www.w3.org/2000/svg">
<g clip-path="url(#clip0_239_1012)">
<path d="M54.5641 9.30015C51.6265 6.3415 48.1305 3.99584 44.279 2.39935C40.4276 0.802856 36.2973 -0.0126578 32.1281 0.000148517C14.6521 0.000148517 0.428063 14.2241 0.428063 31.7121C0.428063 37.3001 1.89206 42.7641 4.66406 47.5641L0.164062 64.0001L16.9761 59.5882C21.6221 62.1245 26.8308 63.4532 32.1241 63.4521H32.1361C49.6121 63.4521 63.8481 49.2281 63.8481 31.7401C63.8558 27.5727 63.0392 23.4449 61.4452 19.5944C59.8511 15.7439 57.5112 12.2467 54.5601 9.30415L54.5641 9.30015ZM32.1361 58.1001C27.4131 58.0976 22.7774 56.8282 18.7121 54.4241L17.7481 53.8481L7.77206 56.4601L10.4361 46.7361L9.81206 45.7361C7.1637 41.539 5.7639 36.675 5.77606 31.7121C5.78559 24.7208 8.56793 18.0188 13.5127 13.0763C18.4574 8.13378 25.1607 5.3545 32.1521 5.34815C39.1881 5.34815 45.8161 8.10015 50.7881 13.0721C53.2424 15.5164 55.1877 18.423 56.5115 21.6239C57.8352 24.8248 58.5111 28.2564 58.5001 31.7201C58.4881 46.2682 46.6641 58.1001 32.1361 58.1001ZM46.5881 38.3521C45.8001 37.9521 41.9001 36.0401 41.1761 35.7761C40.4521 35.5121 39.9241 35.3761 39.3881 36.1761C38.8641 36.9641 37.3401 38.7521 36.8761 39.2881C36.4121 39.8121 35.9521 39.8881 35.1641 39.4881C34.3761 39.0881 31.8121 38.2521 28.7881 35.5521C26.4361 33.4521 24.8401 30.8521 24.3761 30.0641C23.9121 29.2761 24.3241 28.8401 24.7281 28.4521C25.0921 28.1001 25.5161 27.5281 25.9161 27.0641C26.3161 26.6001 26.4401 26.2761 26.7041 25.7401C26.9681 25.2161 26.8401 24.7521 26.6401 24.3521C26.4401 23.9521 24.8521 20.0521 24.2041 18.4641C23.5681 16.9121 22.9041 17.1281 22.4161 17.1001C21.9521 17.0761 21.4281 17.0761 20.9041 17.0761C20.3801 17.0761 19.5161 17.2761 18.7921 18.0641C18.0681 18.8521 16.0161 20.7761 16.0161 24.6761C16.0161 28.5761 18.8521 32.3401 19.2521 32.8761C19.6521 33.4001 24.8401 41.4121 32.7881 44.8401C34.6761 45.6521 36.1521 46.1401 37.3001 46.5161C39.2001 47.1161 40.9241 47.0281 42.2881 46.8281C43.8121 46.6041 46.9761 44.9161 47.6401 43.0641C48.3041 41.2121 48.3041 39.6281 48.1041 39.3001C47.9161 38.9481 47.3921 38.7521 46.5921 38.3481L46.5881 38.3521Z" fill="#937028"/>
</g>
<defs>
<clipPath id="clip0_239_1012">
<rect width="64" height="64" fill="white"/>
</clipPath>
</defs>
</svg>
